<svg id="Layer_1" data-name="Layer 1" xmlns="http://www.w3.org/2000/svg" xmlns:xlink="http://www.w3.org/1999/xlink" viewBox="0 0 800 800"><defs><style>.cls-1{fill:#fff;}.cls-2,.cls-3{fill-rule:evenodd;}.cls-2{fill:url(#GradientFill_1);}.cls-3{fill:#231f20;}</style><linearGradient id="GradientFill_1" x1="516.34" y1="417.97" x2="273.49" y2="234.97" gradientUnits="userSpaceOnUse"><stop offset="0" stop-color="#ffca05"/><stop offset="0.11" stop-color="#fec206"/><stop offset="0.29" stop-color="#fcac0a"/><stop offset="0.5" stop-color="#f88711"/><stop offset="0.75" stop-color="#f2551a"/><stop offset="1" stop-color="#ec1c24"/></linearGradient></defs><rect class="cls-1" x="0.5" y="0.5" width="799" height="799"/><path d="M799,1V799H1V1H799m1-1H0V800H800V0Z"/><path class="cls-2" d="M506.81,330.31h21.77a105.38,105.38,0,0,1-.09,22H243v17.55h104.3a85,85,0,0,0,41.07,45.81v22.44A105.72,105.72,0,0,1,335,391.8H291.38v17.54h34a122.67,122.67,0,0,0,81.39,51.79V404.74a67.88,67.88,0,0,1-40.9-34.91l-.14-.3h118l-.14.3a67.86,67.86,0,0,1-40.91,34.91v56.39c37.95-6.18,76.61-34.22,92.78-69.33A121.28,121.28,0,0,0,546,352.28q.53-5.64.52-11.42c0-3.55-.15-7.08-.45-10.55a121.82,121.82,0,0,0-2.8-17.55C532,264.93,491.28,226.9,442.66,219v56.39a67.84,67.84,0,0,1,42,37.37h-120a67.79,67.79,0,0,1,42-37.37V219a122.64,122.64,0,0,0-83,54.24h-73.8v17.54h83.73a105.65,105.65,0,0,1,54.71-48.73v22.44h0a84.54,84.54,0,0,0-13.78,8.75,84.75,84.75,0,0,0-28.17,39.52H212.59v17.55H506.81Zm-45.74-88.25a105.4,105.4,0,0,1,43,31.18c9.42,11.44,17.24,25.22,21.23,39.52H503a84.87,84.87,0,0,0-41.93-48.26V242.06Zm64,127.77C520.66,385,512.32,397.52,502,409.34a105.31,105.31,0,0,1-40.9,28.74V415.64a84.87,84.87,0,0,0,41.06-45.81H525Z"/><polygon class="cls-3" points="155.08 515.16 155.08 535.32 163.42 535.32 163.42 487.49 155.08 487.49 155.08 507.37 132.12 507.37 132.12 487.49 123.79 487.49 123.79 535.32 132.12 535.32 132.12 515.16 155.08 515.16"/><polygon class="cls-3" points="198.27 516.25 217.26 487.49 207.63 487.49 194.1 508.67 180.71 487.49 170.8 487.49 189.79 516.46 189.79 535.32 198.27 535.32 198.27 516.25"/><path class="cls-3" d="M261.68,503.54a16.51,16.51,0,0,0-1.27-6.63,14.22,14.22,0,0,0-3.62-5.05,16,16,0,0,0-5.74-3.25,23.81,23.81,0,0,0-7.55-1.12H224.64v47.83H233V519.94h9.52a25.5,25.5,0,0,0,7.47-1.06,18.17,18.17,0,0,0,6.09-3.11,14.68,14.68,0,0,0,4.12-5.12,16,16,0,0,0,1.5-7.11Zm-8.54.17a7.8,7.8,0,0,1-2.78,6.28,11.27,11.27,0,0,1-7.57,2.37H233V495.07h9.81a12.06,12.06,0,0,1,7.54,2.16A7.67,7.67,0,0,1,253.14,503.71Z"/><polygon class="cls-3" points="305.69 487.49 270.29 487.49 270.29 535.32 306.03 535.32 306.03 527.73 278.63 527.73 278.63 514.95 302.61 514.95 302.61 507.37 278.63 507.37 278.63 495.07 305.69 495.07 305.69 487.49"/><path class="cls-3" d="M356.66,535.32l-12.91-18.11a18.12,18.12,0,0,0,4.61-2,14.38,14.38,0,0,0,3.59-3.07A14,14,0,0,0,354.3,508a17,17,0,0,0-.37-11.69,13,13,0,0,0-3.52-4.78,16.23,16.23,0,0,0-5.6-3,24.54,24.54,0,0,0-7.42-1.05H316.07v47.83h8.34V518.64H335l11.78,16.68Zm-10-32.22a7.22,7.22,0,0,1-2.68,5.9,11,11,0,0,1-7.2,2.2H324.41V495.07h12.26c3.16,0,5.61.67,7.34,2A7.11,7.11,0,0,1,346.62,503.1Z"/><path class="cls-3" d="M407.09,527.73l-3.55-3.48a29.79,29.79,0,0,1-7,5.09,18.58,18.58,0,0,1-8.48,1.81,17.43,17.43,0,0,1-7.34-1.54,18.33,18.33,0,0,1-5.88-4.2,19.22,19.22,0,0,1-3.89-6.29,21.26,21.26,0,0,1-1.4-7.79,21,21,0,0,1,1.4-7.75,19.39,19.39,0,0,1,3.89-6.26,17.92,17.92,0,0,1,5.88-4.16,17.72,17.72,0,0,1,7.34-1.51,18,18,0,0,1,8.44,1.85,30.24,30.24,0,0,1,6.6,4.71l3.69-4a36.63,36.63,0,0,0-3.69-3.11,22.47,22.47,0,0,0-4.17-2.39,25,25,0,0,0-4.89-1.54,29.45,29.45,0,0,0-5.91-.54,23.84,23.84,0,0,0-9.7,1.94,23.45,23.45,0,0,0-7.65,5.33,24.91,24.91,0,0,0-5,7.89,26.74,26.74,0,0,0,0,19.34,24,24,0,0,0,5,7.83A23.57,23.57,0,0,0,388,536.14a26.43,26.43,0,0,0,5.94-.62,24.65,24.65,0,0,0,5-1.71,23.56,23.56,0,0,0,4.34-2.63A33.49,33.49,0,0,0,407.09,527.73Z"/><path class="cls-3" d="M439.27,487.14h-5l-21.8,48.18H418l5.67-12.65h26l5.6,12.65h5.81l-21.8-48.18Zm8.27,30.75h-21.8l10.94-24.39Z"/><polygon class="cls-3" points="505.69 525.82 475.56 487.49 470.5 487.49 470.5 535.32 475.76 535.32 475.76 496.1 506.65 535.32 510.95 535.32 510.95 487.49 505.69 487.49 505.69 525.82"/><polygon class="cls-3" points="559.67 525.82 529.54 487.49 524.49 487.49 524.49 535.32 529.75 535.32 529.75 496.1 560.63 535.32 564.94 535.32 564.94 487.49 559.67 487.49 559.67 525.82"/><path class="cls-3" d="M625.14,511.33a25.67,25.67,0,0,0-1.75-9.46,23.48,23.48,0,0,0-12.64-13.22,25.86,25.86,0,0,0-19.92,0,23.88,23.88,0,0,0-7.72,5.43,24.64,24.64,0,0,0-5,7.9,25.25,25.25,0,0,0-1.78,9.46,25.87,25.87,0,0,0,1.74,9.46,23.48,23.48,0,0,0,12.64,13.22,25.74,25.74,0,0,0,19.92,0,23.63,23.63,0,0,0,7.72-5.43,24.73,24.73,0,0,0,5-7.89,25.54,25.54,0,0,0,1.78-9.47Zm-5.61.14a20.88,20.88,0,0,1-1.4,7.69,19.62,19.62,0,0,1-3.86,6.25,17.82,17.82,0,0,1-5.91,4.2,19.11,19.11,0,0,1-15.1,0,18.76,18.76,0,0,1-9.91-10.53,21.25,21.25,0,0,1-1.4-7.72,21,21,0,0,1,1.4-7.68,19.74,19.74,0,0,1,3.86-6.26,18,18,0,0,1,5.91-4.2,18.43,18.43,0,0,1,7.55-1.54,17.94,17.94,0,0,1,7.55,1.58,18.7,18.7,0,0,1,9.91,10.52A21.08,21.08,0,0,1,619.53,511.47Z"/><polygon class="cls-3" points="671.74 525.82 641.61 487.49 636.55 487.49 636.55 535.32 641.81 535.32 641.81 496.1 672.7 535.32 677 535.32 677 487.49 671.74 487.49 671.74 525.82"/></svg>