<svg version="1.1" id="Layer_1" xmlns="http://www.w3.org/2000/svg" xmlns:xlink="http://www.w3.org/1999/xlink" x="0px" y="0px"
	 width="161px" height="59px" viewBox="0 0 161 59" style="enable-background:new 0 0 161 59;" xml:space="preserve">
<style type="text/css">
	.st0{fill:#FFFFFF;}
	.st1{fill:#2787C8;}
</style>
<g>
	<circle id="XMLID_251_" class="st0" cx="19.1" cy="47.1" r="2.8"/>
	<path id="XMLID_249_" class="st1" d="M26.1,32.7l-5.2-9.7v16c0,1.1-0.9,2-1.9,2c-1,0-1.9-0.9-1.9-2V15.7c0-1.1,0.9-2,1.9-2
		c0.8,0,1.4,0.5,1.7,1.1l7,13.2l7-13.2c0.3-0.6,0.9-1.1,1.7-1.1c1,0,1.9,0.9,1.9,2v20c0,1.1-0.9,2-1.9,2c-1,0-1.9-0.9-1.9-2V23.1
		l-5.2,9.7c-0.3,0.6-1,1-1.6,1C27.1,33.7,26.5,33.4,26.1,32.7z"/>
	<path id="XMLID_246_" class="st1" d="M44.6,25.8c-0.3,0.2-0.6,0.3-1,0.3c-0.9,0-1.6-0.7-1.6-1.6c0-0.4,0.1-0.8,0.5-1.1
		c1-1.1,2.7-2.2,5.7-2.2c4.3,0,6.9,2.1,6.9,5.8v8.9c0,1-0.8,1.8-1.8,1.8c-1,0-1.8-0.8-1.8-1.8c-0.9,1.5-2.5,2-4.6,2
		c-3.4,0-5.7-2.1-5.7-5.2c0-3.2,2.6-4.9,5.6-4.9h4.6v-0.6c0-1.6-1.1-2.6-3.2-2.6C46.5,24.5,45.5,25.2,44.6,25.8z M51.2,31.6v-1h-4.1
		c-1.5,0-2.4,0.7-2.4,2c0,1.3,0.9,2.1,2.9,2.1C49.5,34.7,51.2,33.5,51.2,31.6z"/>
	<path id="XMLID_244_" class="st1" d="M72.3,27.2v8.7c0,1-0.8,1.8-1.9,1.8c-1.1,0-1.9-0.8-1.9-1.8v-8c0-2-0.8-3.3-3.1-3.3
		c-2.6,0-3.5,1.5-3.5,3.6v7.7c0,1-0.8,1.8-1.9,1.8c-1.1,0-1.9-0.8-1.9-1.8V23.2c0-1,0.8-1.9,1.9-1.9c1,0,1.9,0.8,1.9,1.9
		c0.7-1,2.1-2.1,4.4-2.1C71.2,21.1,72.3,24.2,72.3,27.2z"/>
	<path id="XMLID_242_" class="st1" d="M79.3,23.2c0.7-1,2.1-2.1,4.4-2.1c4.7,0,5.8,3,5.8,6v8.7c0,1-0.8,1.8-1.9,1.8
		c-1.1,0-1.9-0.8-1.9-1.8v-8c0-2-0.8-3.3-3.1-3.3c-2.6,0-3.5,1.5-3.5,3.6v7.7c0,1-0.8,1.8-1.9,1.8c-1.1,0-1.9-0.8-1.9-1.8V14.5
		c0-1,0.8-1.9,1.9-1.9c1,0,1.9,0.8,1.9,1.9V23.2z"/>
	<path id="XMLID_239_" class="st1" d="M95.7,25.8c-0.3,0.2-0.6,0.3-1,0.3c-0.9,0-1.6-0.7-1.6-1.6c0-0.4,0.1-0.8,0.5-1.1
		c1-1.1,2.7-2.2,5.7-2.2c4.3,0,6.9,2.1,6.9,5.8v8.9c0,1-0.8,1.8-1.8,1.8c-1,0-1.8-0.8-1.8-1.8c-0.9,1.5-2.5,2-4.6,2
		c-3.4,0-5.7-2.1-5.7-5.2c0-3.2,2.6-4.9,5.6-4.9h4.6v-0.6c0-1.6-1.1-2.6-3.2-2.6C97.6,24.5,96.5,25.2,95.7,25.8z M102.3,31.6v-1
		h-4.1c-1.5,0-2.4,0.7-2.4,2c0,1.3,0.9,2.1,2.9,2.1C100.6,34.7,102.3,33.5,102.3,31.6z"/>
	<path id="XMLID_237_" class="st1" d="M110.5,18.7c0-1,0.8-1.8,1.8-1.8c1,0,1.8,0.8,1.8,1.8v2.9h1.6c0.9,0,1.6,0.7,1.6,1.6
		s-0.7,1.6-1.6,1.6h-1.6v8.4c0,0.8,0.7,1.3,1.3,1.3c0.9,0,1.6,0.7,1.6,1.6c0,0.9-0.7,1.6-1.6,1.6c-3.1,0-5-2-5-4.7v-8.2h-0.8
		c-0.9,0-1.6-0.7-1.6-1.6s0.7-1.6,1.6-1.6h0.8V18.7z"/>
	<path id="XMLID_235_" class="st1" d="M121.2,18.7c0-1,0.8-1.8,1.8-1.8c1,0,1.8,0.8,1.8,1.8v2.9h1.6c0.9,0,1.6,0.7,1.6,1.6
		s-0.7,1.6-1.6,1.6h-1.6v8.4c0,0.8,0.7,1.3,1.3,1.3c0.9,0,1.6,0.7,1.6,1.6c0,0.9-0.7,1.6-1.6,1.6c-3.1,0-5-2-5-4.7v-8.2h-0.8
		c-0.9,0-1.6-0.7-1.6-1.6s0.7-1.6,1.6-1.6h0.8V18.7z"/>
	<path id="XMLID_232_" class="st1" d="M133.3,25.8c-0.3,0.2-0.6,0.3-1,0.3c-0.9,0-1.6-0.7-1.6-1.6c0-0.4,0.1-0.8,0.5-1.1
		c1-1.1,2.7-2.2,5.7-2.2c4.3,0,6.9,2.1,6.9,5.8v8.9c0,1-0.8,1.8-1.8,1.8c-1,0-1.8-0.8-1.8-1.8c-0.9,1.5-2.5,2-4.6,2
		c-3.4,0-5.7-2.1-5.7-5.2c0-3.2,2.6-4.9,5.6-4.9h4.6v-0.6c0-1.6-1.1-2.6-3.2-2.6C135.3,24.5,134.2,25.2,133.3,25.8z M139.9,31.6v-1
		h-4.1c-1.5,0-2.4,0.7-2.4,2c0,1.3,0.9,2.1,2.9,2.1C138.2,34.7,139.9,33.5,139.9,31.6z"/>
	<path id="XMLID_230_" class="st1" d="M161,27.2v8.7c0,1-0.8,1.8-1.9,1.8c-1.1,0-1.9-0.8-1.9-1.8v-8c0-2-0.8-3.3-3.1-3.3
		c-2.6,0-3.5,1.5-3.5,3.6v7.7c0,1-0.8,1.8-1.9,1.8c-1.1,0-1.9-0.8-1.9-1.8V23.2c0-1,0.8-1.9,1.9-1.9c1,0,1.9,0.8,1.9,1.9
		c0.7-1,2.1-2.1,4.4-2.1C159.9,21.1,161,24.2,161,27.2z"/>
	<g id="XMLID_4_">
		<g>
			<path id="XMLID_129_" class="st0" d="M49.1,51.8l-3.4-6.4v8.1c0,0.3-0.2,0.5-0.5,0.5c-0.3,0-0.5-0.2-0.5-0.5V43.2
				c0-0.3,0.2-0.5,0.5-0.5c0.2,0,0.4,0.1,0.5,0.3l4,7.5l4-7.5c0.1-0.1,0.2-0.3,0.5-0.3c0.3,0,0.5,0.2,0.5,0.5v10.3
				c0,0.3-0.2,0.5-0.5,0.5c-0.3,0-0.5-0.2-0.5-0.5v-8.1l-3.5,6.4c-0.1,0.2-0.3,0.3-0.5,0.3C49.4,52.1,49.2,52,49.1,51.8z"/>
			<path id="XMLID_126_" class="st0" d="M56.6,48.4c0-3.9,1.9-5.8,5.1-5.8c3.2,0,5.1,1.9,5.1,5.8c0,3.9-1.9,5.8-5.1,5.8
				C58.6,54.1,56.6,52.2,56.6,48.4z M57.8,48.4c0,3.2,1.5,4.7,4,4.7c2.5,0,4-1.5,4-4.7c0-3.2-1.5-4.8-4-4.8
				C59.3,43.6,57.8,45.1,57.8,48.4z"/>
			<path id="XMLID_122_" class="st0" d="M69.5,53.9c-0.3,0-0.6-0.2-0.6-0.6v-10c0-0.3,0.3-0.6,0.6-0.6h2.8c2.3,0,3.4,1.2,3.4,2.9
				c0,1.1-0.7,2-1.6,2.2c1.2,0.3,2.1,1.2,2.1,2.8c0,1.9-1.2,3.2-3.4,3.2H69.5z M70.1,47.7h2.2c1.5,0,2.2-0.8,2.2-1.9
				c0-1.2-0.7-1.9-2.2-1.9h-2.2V47.7z M70.1,52.9h2.7c1.5,0,2.3-0.8,2.3-2.1c0-1.4-0.9-2.1-2.3-2.1h-2.7V52.9z"/>
			<path id="XMLID_120_" class="st0" d="M79.4,53.5c0,0.3-0.2,0.6-0.6,0.6c-0.3,0-0.6-0.3-0.6-0.6V43.2c0-0.3,0.2-0.6,0.6-0.6
				c0.3,0,0.6,0.3,0.6,0.6V53.5z"/>
			<path id="XMLID_118_" class="st0" d="M87.6,52.9c0.3,0,0.5,0.2,0.5,0.5s-0.2,0.5-0.5,0.5h-5.1c-0.3,0-0.6-0.2-0.6-0.6V43.2
				c0-0.3,0.2-0.6,0.6-0.6s0.6,0.2,0.6,0.6v9.6H87.6z"/>
			<path id="XMLID_116_" class="st0" d="M90.5,53.9c-0.3,0-0.6-0.2-0.6-0.6v-10c0-0.3,0.2-0.6,0.6-0.6h5.3c0.3,0,0.5,0.2,0.5,0.5
				c0,0.3-0.2,0.5-0.5,0.5h-4.7v4h3.6c0.3,0,0.5,0.2,0.5,0.5c0,0.3-0.2,0.5-0.5,0.5h-3.6v4.1H96c0.3,0,0.5,0.2,0.5,0.5
				c0,0.3-0.2,0.5-0.5,0.5H90.5z"/>
		</g>
	</g>
	<path id="XMLID_3_" class="st0" d="M34.9,47.1c0,3.4-2.8,6.3-6.3,6.3H9.7c-3.4,0-6.3-2.8-6.3-6.3V11.9c0-3.4,2.8-6.3,6.3-6.3h18.9
		c3.3,0,6,2.6,6.2,5.9h3.4V6.6c0-3.4-2.8-6.3-6.3-6.3H6.3C2.8,0.3,0,3.1,0,6.6v45.9c0,3.4,2.8,6.3,6.3,6.3H32c3.4,0,6.3-2.8,6.3-6.3
		V41h-3.4V47.1z"/>
</g>
</svg>
