<svg version="1.1" id="Layer_1" xmlns="http://www.w3.org/2000/svg" xmlns:xlink="http://www.w3.org/1999/xlink" x="0px" y="0px"
	 width="40px" height="62px" viewBox="0 0 40 62" style="enable-background:new 0 0 40 62;" xml:space="preserve">
<style type="text/css">
	.st0{fill:#FFFFFF;}
	.st1{fill:#2787C8;}
</style>
<g>
	<circle id="XMLID_251_" class="st0" cx="20" cy="49.4" r="3"/>
	<path id="XMLID_249_" class="st1" d="M27.3,34.4l-5.4-10.1V41c0,1.1-0.9,2.1-2,2.1c-1.1,0-2-0.9-2-2.1V16.6c0-1.1,0.9-2.1,2-2.1
		c0.9,0,1.4,0.5,1.8,1.2L29,29.5l7.3-13.8c0.3-0.7,0.9-1.2,1.8-1.2c1.1,0,2,0.9,2,2.1v20.9c0,1.1-0.9,2.1-2,2.1c-1.1,0-2-0.9-2-2.1
		V24.3l-5.4,10.1c-0.3,0.7-1,1-1.7,1C28.3,35.4,27.6,35,27.3,34.4z"/>
	<path id="XMLID_3_" class="st0" d="M36.4,49.4c0,3.6-2.9,6.5-6.5,6.5H10.1c-3.6,0-6.5-2.9-6.5-6.5V12.6c0-3.6,2.9-6.5,6.5-6.5h19.8
		c3.5,0,6.3,2.7,6.5,6.1H40V7.1c0-3.6-2.9-6.5-6.5-6.5H6.5C2.9,0.5,0,3.5,0,7.1v47.9c0,3.6,2.9,6.5,6.5,6.5h26.9
		c3.6,0,6.5-2.9,6.5-6.5V43h-3.6V49.4z"/>
</g>
</svg>
