<svg id="Layer_1" data-name="Layer 1" xmlns="http://www.w3.org/2000/svg" viewBox="0 0 800 800"><defs><style>.cls-1{fill:#2787c8;}.cls-2{fill:#fff;}</style></defs><rect width="800" height="800"/><circle cx="344.04" cy="489.36" r="22.64"/><path class="cls-1" d="M399.14,376.14l-40.76-76.23V426c0,8.3-6.79,15.85-15.1,15.85S328.19,435,328.19,426V241.79c0-8.31,6.79-15.85,15.09-15.85,6.8,0,10.57,3.77,13.59,9.05L412,339.16,467.07,235a14.16,14.16,0,0,1,13.59-9.05c8.3,0,15.1,6.79,15.1,15.85V399.54c0,8.31-6.8,15.85-15.1,15.85s-15.1-6.79-15.1-15.85V299.91L424.8,376.14c-2.26,5.29-7.54,7.55-12.83,7.55S401.4,380.67,399.14,376.14Z"/><path d="M467.83,489.36a49,49,0,0,1-49.07,49.07H269.31a49,49,0,0,1-49.06-49.07V211.6a49,49,0,0,1,49.06-49.07H418.76a48.91,48.91,0,0,1,49.07,46.05H495v-38.5A49,49,0,0,0,445.94,121H242.14c-27.17-.76-49.06,21.89-49.06,49.06V531.63a49,49,0,0,0,49.06,49.07h203a49,49,0,0,0,49.07-49.07V441.06H467.07v48.3Z"/><circle cx="248.76" cy="546.5" r="6.3"/><path class="cls-1" d="M264.5,514.1l-11.69-21.82v36a4.28,4.28,0,1,1-8.55,0V475.86a4.47,4.47,0,0,1,4.27-4.5,4.3,4.3,0,0,1,3.83,2.47l15.74,29.7,15.75-29.7a4.3,4.3,0,0,1,3.83-2.47,4.47,4.47,0,0,1,4.27,4.5v45a4.28,4.28,0,1,1-8.55,0V492.5l-11.7,21.83a4.27,4.27,0,0,1-3.6,2.25A4.9,4.9,0,0,1,264.5,514.1Z"/><path class="cls-1" d="M306.13,498.58a3.81,3.81,0,0,1-2.25.67,3.55,3.55,0,0,1-3.6-3.6,2.85,2.85,0,0,1,1.12-2.47c2.25-2.48,6.08-4.95,12.83-4.95,9.67,0,15.52,4.72,15.52,13v20a4.05,4.05,0,1,1-8.1,0c-2,3.38-5.63,4.5-10.35,4.5-7.65,0-12.82-4.72-12.82-11.7,0-7.2,5.85-11,12.6-11h10.34v-1.35c0-3.6-2.47-5.85-7.19-5.85C310.4,495.65,308.15,497.23,306.13,498.58ZM321,511.63v-2.25h-9.22c-3.37,0-5.4,1.57-5.4,4.5s2,4.72,6.53,4.72C317.15,518.6,321,515.9,321,511.63Z"/><path class="cls-1" d="M368.44,501.73V521.3a4.28,4.28,0,0,1-8.54,0v-18c0-4.5-1.8-7.42-7-7.42-5.85,0-7.87,3.37-7.87,8.1V521.3a4.28,4.28,0,0,1-8.55,0V492.73a4.28,4.28,0,1,1,8.55,0c1.57-2.25,4.72-4.73,9.9-4.73C366,488,368.44,495,368.44,501.73Z"/><path class="cls-1" d="M384.19,492.73a11.65,11.65,0,0,1,9.9-4.73c10.58,0,13.05,6.75,13.05,13.5v19.58a4.28,4.28,0,0,1-8.55,0v-18c0-4.5-1.8-7.43-7-7.43-5.85,0-7.88,3.38-7.88,8.1v17.33a4.28,4.28,0,0,1-8.55,0V473.16a4.28,4.28,0,1,1,8.55,0v19.57Z"/><path class="cls-1" d="M421.09,498.58a3.81,3.81,0,0,1-2.25.67,3.55,3.55,0,0,1-3.6-3.6,2.87,2.87,0,0,1,1.12-2.47c2.25-2.48,6.08-4.95,12.83-4.95,9.67,0,15.52,4.72,15.52,13v20a4.05,4.05,0,0,1-8.1,0c-2,3.38-5.62,4.5-10.35,4.5-7.65,0-12.82-4.72-12.82-11.7,0-7.2,5.85-11,12.6-11h10.35v-1.35c0-3.6-2.48-5.85-7.2-5.85A11.59,11.59,0,0,0,421.09,498.58Zm14.85,13.05v-2.25h-9.23c-3.37,0-5.4,1.57-5.4,4.5s2,4.72,6.53,4.72C432.11,518.6,435.94,515.9,435.94,511.63Z"/><path class="cls-1" d="M454.39,482.61a4.05,4.05,0,0,1,8.1,0v6.52h3.6a3.6,3.6,0,0,1,0,7.2h-3.6v18.9a3,3,0,0,0,2.92,2.92,3.6,3.6,0,0,1,0,7.2c-7,0-11.25-4.5-11.25-10.57V496.33h-1.8a3.6,3.6,0,0,1,0-7.2h1.8v-6.52Z"/><path class="cls-1" d="M478.46,482.61a4.05,4.05,0,0,1,8.1,0v6.52h3.6a3.6,3.6,0,0,1,0,7.2h-3.6v18.9a3,3,0,0,0,2.92,2.92,3.6,3.6,0,0,1,0,7.2c-7,0-11.25-4.5-11.25-10.57V496.33h-1.8a3.6,3.6,0,0,1,0-7.2h1.8v-6.52Z"/><path class="cls-1" d="M505.68,498.58a3.79,3.79,0,0,1-2.25.67,3.55,3.55,0,0,1-3.6-3.6,2.86,2.86,0,0,1,1.13-2.47c2.25-2.48,6.07-4.95,12.82-4.95,9.67,0,15.52,4.72,15.52,13v20a4.05,4.05,0,0,1-8.1,0c-2,3.38-5.62,4.5-10.34,4.5-7.65,0-12.83-4.72-12.83-11.7,0-7.2,5.85-11,12.6-11H521v-1.35c0-3.6-2.48-5.85-7.2-5.85C510.18,495.65,507.71,497.23,505.68,498.58Zm14.85,13.05v-2.25h-9.22c-3.38,0-5.4,1.57-5.4,4.5s2,4.72,6.52,4.72C516.71,518.6,520.53,515.9,520.53,511.63Z"/><path class="cls-1" d="M568,501.73V521.3a4.28,4.28,0,0,1-8.55,0v-18c0-4.5-1.8-7.42-7-7.42-5.85,0-7.88,3.37-7.88,8.1V521.3a4.28,4.28,0,0,1-8.55,0V492.73a4.28,4.28,0,1,1,8.55,0,11.65,11.65,0,0,1,9.9-4.73C565.53,488,568,495,568,501.73Z"/><path class="cls-2" d="M316.25,557.07l-7.65-14.4V560.9a1.13,1.13,0,0,1-2.25,0V537.72a1.06,1.06,0,0,1,1.13-1.12,1.22,1.22,0,0,1,1.12.67l9,16.88,9-16.88a1.4,1.4,0,0,1,1.12-.67,1.06,1.06,0,0,1,1.13,1.12V560.9a1.13,1.13,0,0,1-2.25,0V542.67l-7.88,14.4a1.23,1.23,0,0,1-1.12.68A1.35,1.35,0,0,1,316.25,557.07Z"/><path class="cls-2" d="M333.12,549.42c0-8.77,4.28-13,11.48-13s11.47,4.27,11.47,13-4.27,13.05-11.47,13.05C337.62,562.25,333.12,558,333.12,549.42Zm2.7,0c0,7.2,3.38,10.58,9,10.58s9-3.38,9-10.58-3.37-10.8-9-10.8S335.82,542,335.82,549.42Z"/><path class="cls-2" d="M362.15,561.8a1.29,1.29,0,0,1-1.35-1.35V538a1.44,1.44,0,0,1,1.35-1.35h6.29c5.18,0,7.65,2.7,7.65,6.52a4.92,4.92,0,0,1-3.6,5,6,6,0,0,1,4.73,6.3c0,4.28-2.7,7.2-7.65,7.2h-7.42Zm1.35-13.95h4.94c3.38,0,4.95-1.8,4.95-4.28,0-2.7-1.57-4.27-4.95-4.27H363.5Zm0,11.7h6.07c3.37,0,5.17-1.8,5.17-4.73,0-3.15-2-4.72-5.17-4.72H363.5Z"/><path class="cls-2" d="M384.42,560.9a1.3,1.3,0,0,1-1.35,1.35,1.45,1.45,0,0,1-1.35-1.35V537.72a1.29,1.29,0,0,1,1.35-1.34,1.45,1.45,0,0,1,1.35,1.34Z"/><path class="cls-2" d="M402.87,559.55a1.13,1.13,0,0,1,0,2.25H391.39a1.3,1.3,0,0,1-1.35-1.35V537.72a1.29,1.29,0,0,1,1.35-1.34,1.19,1.19,0,0,1,1.35,1.34v21.6h10.13Z"/><path class="cls-2" d="M409.39,561.8a1.3,1.3,0,0,1-1.35-1.35V538a1.29,1.29,0,0,1,1.35-1.35h11.92a1.13,1.13,0,1,1,0,2.25H410.74v9h8.1a1.13,1.13,0,0,1,0,2.25h-8.1v9.22h11a1.13,1.13,0,1,1,0,2.25H409.39Z"/><path d="M284.3,546.5a14.25,14.25,0,0,1-14.17,14.17H227.61a14.26,14.26,0,0,1-14.18-14.17V467.31a14.27,14.27,0,0,1,14.18-14.18h42.52a14,14,0,0,1,13.95,13.28h7.65v-11a14.26,14.26,0,0,0-14.18-14.17H220a14.11,14.11,0,0,0-14.17,14.17V558.65A14.25,14.25,0,0,0,220,572.82h57.82A14.25,14.25,0,0,0,292,558.65V532.78H284.3Z"/></svg>