<svg id="SvgjsSvg1001" width="288" height="288" xmlns="http://www.w3.org/2000/svg" version="1.1" xmlns:xlink="http://www.w3.org/1999/xlink" xmlns:svgjs="http://svgjs.com/svgjs"><defs id="SvgjsDefs1002"></defs><g id="SvgjsG1008" transform="matrix(1,0,0,1,0,0)"><svg xmlns="http://www.w3.org/2000/svg" width="288" height="288" fill="none" viewBox="0 0 192 192"><g clip-path="url(#clip0)" fill="#ffffff" class="color000 svgShape"><path fill="#ffffff" d="M148.61 92.22H124.61L108.03 44.7H84.2802L67.7002 92.22H43.7002V108.4H62.0602L54.1802 130.99V132.83H73.0302L80.9302 108.41H111.4L119.3 132.83H138.15V130.99L130.27 108.4H148.63V92.22H148.61ZM86.1602 92.22L95.5502 63.1899H96.7702L106.16 92.22H86.1602Z" class="color000 svgShape"></path><path fill="#ffffff" d="M95.7 191.4C42.93 191.4 0 148.47 0 95.7C0 42.93 42.93 0 95.7 0C148.47 0 191.4 42.93 191.4 95.7C191.4 148.47 148.47 191.4 95.7 191.4ZM95.7 16.51C52.03 16.51 16.5 52.04 16.5 95.71C16.5 139.38 52.03 174.9 95.7 174.9C139.37 174.9 174.89 139.37 174.89 95.71C174.9 52.03 139.37 16.51 95.7 16.51Z" class="color000 svgShape"></path></g><defs><clipPath id="clip0"><rect width="191.4" height="191.4" fill="#ffffff" class="colorfff svgShape"></rect></clipPath></defs></svg></g></svg>